<?xml version="1.0" standalone="no"?>
<!DOCTYPE svg PUBLIC "-//W3C//DTD SVG 20010904//EN"
 "http://www.w3.org/TR/2001/REC-SVG-20010904/DTD/svg10.dtd">
<svg version="1.0" xmlns="http://www.w3.org/2000/svg"
 width="317.000000pt" height="251.000000pt" viewBox="0 0 317.000000 251.000000"
 preserveAspectRatio="xMidYMid meet">

<g transform="translate(0.000000,251.000000) scale(0.100000,-0.100000)"
fill="#000000" stroke="none">
<path d="M1888 2213 c6 -2 18 -2 25 0 6 3 1 5 -13 5 -14 0 -19 -2 -12 -5z"/>
<path d="M1737 2196 c-31 -7 -63 -18 -69 -24 -7 -7 -10 -12 -7 -12 13 0 194
42 198 46 8 8 -64 2 -122 -10z"/>
<path d="M2204 2160 c-28 -4 -60 -12 -72 -19 -30 -16 -50 -14 -55 7 -7 25 -7
23 -10 -578 l-2 -545 -24 -48 c-35 -72 -109 -141 -178 -167 -47 -18 -73 -21
-138 -18 -131 7 -217 66 -274 188 -34 74 -36 201 -4 272 28 62 100 138 159
167 87 44 184 39 308 -14 18 -8 19 -2 12 236 -4 134 -9 245 -10 246 -5 5 -56
-22 -56 -29 0 -5 -5 -8 -10 -8 -6 0 -54 -25 -108 -56 -53 -31 -113 -66 -132
-77 -19 -10 -53 -30 -75 -43 -43 -25 -70 -40 -203 -114 -78 -44 -80 -46 -86
-89 -3 -24 -6 -124 -6 -223 0 -156 2 -184 19 -216 34 -66 102 -112 166 -112
l35 0 0 -66 0 -67 -65 5 c-74 6 -133 33 -188 86 -88 85 -107 146 -107 352 0
85 -4 161 -9 169 -8 12 -15 10 -46 -7 -44 -27 -52 -27 -58 -4 -3 9 -3 -3 0
-28 3 -25 9 -60 15 -79 9 -28 8 -36 -5 -46 -19 -14 -96 -40 -100 -34 -2 2 0
56 4 119 5 63 13 189 19 280 6 91 13 206 17 256 4 64 2 93 -6 98 -14 9 -120
-47 -211 -112 -89 -63 -239 -216 -272 -278 -83 -155 -69 -262 58 -430 64 -84
352 -380 453 -465 96 -80 290 -213 486 -332 297 -181 449 -158 609 90 48 76
185 342 231 453 62 146 196 581 216 700 17 100 16 298 0 384 -12 59 -20 75
-55 110 -42 42 -143 97 -174 95 -9 -1 -40 -5 -68 -9z m53 -80 c3 -11 14 -20
24 -20 33 0 23 -37 -11 -45 -22 -5 -30 -12 -30 -28 0 -20 0 -20 24 2 32 30 46
9 19 -27 -23 -30 -55 -39 -70 -20 -13 16 -24 98 -13 98 4 0 13 14 19 30 11 34
30 39 38 10z m171 -41 c2 -14 -8 -31 -55 -87 -16 -20 -25 -24 -33 -16 -14 14
-33 92 -25 105 11 18 31 9 41 -18 l10 -28 18 33 c17 33 38 38 44 11z"/>
<path d="M1686 1305 c-49 -17 -102 -69 -117 -113 -6 -19 -9 -61 -7 -93 3 -47
10 -66 35 -96 59 -74 140 -100 214 -69 41 17 94 71 108 109 15 39 14 121 -3
160 -17 43 -76 93 -123 106 -48 14 -59 13 -107 -4z"/>
</g>
</svg>
